<svg width="122" height="122" fill="none" xmlns="http://www.w3.org/2000/svg"><path d="M105.438 1.12a144.805 144.805 0 01-88.876 0C4.178-2.876-2.875 4.177 1.12 16.561a144.805 144.805 0 010 88.876c-3.994 12.384 3.059 19.437 15.443 15.443a144.792 144.792 0 0188.876 0c12.384 3.994 19.437-3.059 15.443-15.443a144.792 144.792 0 010-88.876c3.994-12.384-3.059-19.437-15.443-15.443z" fill="#FF6D00"/><path d="M50.01 59.344V79h7.2V57.904c0-10.584-5.831-15.624-13.68-15.624-4.751 0-8.711 2.232-10.943 6.408V43h-7.2v36h7.2V59.344c0-7.128 3.312-10.728 8.712-10.728s8.712 3.6 8.712 10.728zM81.057 79.72c10.44 0 18.216-7.704 18.216-18.72 0-11.016-7.776-18.72-18.216-18.72-10.44 0-18.216 7.704-18.216 18.72 0 11.016 7.776 18.72 18.216 18.72zm0-6.624c-6.264 0-11.016-4.824-11.016-12.096s4.752-12.096 11.016-12.096S92.072 53.728 92.072 61 87.32 73.096 81.056 73.096z" fill="#fff"/></svg>