<svg width="164" height="164" fill="none" xmlns="http://www.w3.org/2000/svg"><g clip-path="url(#clip0)"><path d="M155.364 71.143A143.944 143.944 0 0192.856 8.635c-5.893-11.517-15.82-11.517-21.713 0A143.889 143.889 0 018.635 71.143c-11.517 5.894-11.517 15.82 0 21.714a143.938 143.938 0 0162.508 62.508c5.894 11.517 15.82 11.517 21.713 0a143.941 143.941 0 0162.508-62.508c11.517-5.894 11.517-15.82 0-21.714z" fill="#FF64B0"/><path d="M63.134 98.72c10.44 0 18.216-7.704 18.216-18.72 0-11.016-7.776-18.72-18.216-18.72-10.44 0-18.216 7.704-18.216 18.72 0 11.016 7.776 18.72 18.216 18.72zm0-6.624c-6.264 0-11.016-4.824-11.016-12.096s4.752-12.096 11.016-12.096S74.15 72.728 74.15 80s-4.752 12.096-11.016 12.096zM94.547 44h-7.2v54h7.2V79.064L111.757 98h9.144l-18.216-19.584L119.604 62h-9.576l-15.48 15.984V44z" fill="#fff"/></g><defs><clipPath id="clip0"><path fill="#fff" d="M0 0h164v164H0z"/></clipPath></defs></svg>