<svg width="125" height="139" fill="none" xmlns="http://www.w3.org/2000/svg"><g clip-path="url(#clip0)"><path d="M25.53 135.237C10.664 143.848 0 136.674 0 123.893v-108.8C0 2.33 10.664-4.854 25.53 3.767a475372.12 475372.12 0 0192.545 53.687c9.233 5.355 9.233 18.74 0 24.095-.01 0-69.417 40.263-92.545 53.687z" fill="#40E687"/><path d="M28.158 48.624h20.016V42H21.246v29.16h6.912c.504-2.952 2.592-5.544 6.912-5.544s7.2 2.664 7.2 9.792v5.328c0 6.48-2.952 9.36-7.2 9.36-4.536 0-7.344-2.808-7.344-9.648v-.864h-7.2V81.6c0 9.864 6.408 15.12 14.544 15.12 7.992 0 14.4-5.4 14.4-15.984v-5.76c0-10.296-4.32-15.696-12.528-15.696-3.96 0-6.984 1.8-8.784 4.608V48.624zM63.036 78l.576-36h-7.776l.576 36h6.624zm-3.312 18.72c2.52 0 4.464-2.088 4.464-4.464 0-2.448-1.944-4.536-4.464-4.536-2.448 0-4.536 2.088-4.536 4.536 0 2.376 2.088 4.464 4.536 4.464z" fill="#fff"/></g><defs><clipPath id="clip0"><path fill="#fff" d="M0 0h125v139H0z"/></clipPath></defs></svg>