<svg width="211" height="106" fill="none" xmlns="http://www.w3.org/2000/svg"><g clip-path="url(#clip0)"><path d="M161.497.1c-9.604-.593-18.686 1.39-26.644 5.314-16.297 8.04-42.388 8.05-58.686 0C68.2 1.489 59.107-.493 49.504.1 23.362 1.72 2.098 22.75.15 48.945-2.157 80.049 22.329 106 52.856 106a52.52 52.52 0 0023.181-5.353c18.675-9.157 40.261-9.157 58.937 0 6.994 3.431 14.862 5.353 23.181 5.353 30.527 0 55.013-25.951 52.705-57.055C208.903 22.752 187.638 1.72 161.497.1z" fill="#BCEC30"/><path d="M69.178 56.448c.072-.792.144-1.584.144-2.448 0-11.016-7.488-18.72-17.712-18.72S33.898 42.984 33.898 54c0 11.016 7.488 18.72 17.712 18.72 8.28 0 14.544-4.104 16.776-11.52H60.61c-1.44 3.24-4.32 5.184-8.712 5.184-6.048 0-10.08-3.672-10.944-9.936h28.224zM51.61 41.616c5.76 0 9.72 3.6 10.584 9.648H41.026c.864-6.048 4.752-9.648 10.584-9.648zM83.12 36h-7.776v36h48.96V36h-7.2v29.376h-13.68V36h-7.2v29.376H83.12V36zm78.865 23.904c0-7.128-5.112-12.024-13.824-12.024h-7.992V36h-7.2v36h15.264c9 0 13.752-4.968 13.752-12.096zm-14.4-5.976c4.896 0 7.2 1.944 7.2 5.904 0 3.888-2.304 6.12-7.2 6.12h-7.416V53.928h7.416zm27.287.072l.576-36h-7.776l.576 36h6.624zm-3.312 18.72c2.52 0 4.464-2.088 4.464-4.464 0-2.448-1.944-4.536-4.464-4.536-2.448 0-4.536 2.088-4.536 4.536 0 2.376 2.088 4.464 4.536 4.464z" fill="#fff"/></g><defs><clipPath id="clip0"><path fill="#fff" d="M0 0h211v106H0z"/></clipPath></defs></svg>