<svg width="135" height="122" fill="none" xmlns="http://www.w3.org/2000/svg"><path d="M43.244 122h48.358a19.068 19.068 0 0016.515-9.548l24.456-42.407a18.105 18.105 0 000-18.11L108.117 9.548A19.068 19.068 0 0091.602 0H43.244A19.069 19.069 0 0026.73 9.548L2.556 51.462a19.095 19.095 0 000 19.086l24.174 41.914A19.071 19.071 0 0043.244 122z" fill="#AD61FF"/><path d="M28.382 72.376V88.72h6.624V79H61.43v9.72h6.624V72.376h-5.04V43h-27.72c-.144 21.096-1.584 25.992-3.384 29.376h-3.528zm12.672-8.568c.432-3.24.72-7.704.792-14.184h13.968v22.752H39.182c.72-1.8 1.296-4.392 1.872-8.568zm42.97 15.912c5.184 0 9.792-2.016 12.168-6.768V79h7.056V53.8c0-8.352-7.2-11.52-14.976-11.52-7.92 0-15.408 3.528-15.408 12.816h7.488c0-4.68 3.24-7.056 7.92-7.056 4.392 0 7.776 1.944 7.776 5.472 0 8.208-24.264.432-24.264 15.984 0 7.128 5.832 10.224 12.24 10.224zm-4.896-10.656c0-6.048 10.944-4.536 17.064-7.488v2.592c0 6.264-5.184 9.504-10.728 9.504-3.672 0-6.336-1.512-6.336-4.608z" fill="#fff"/></svg>