<svg width="108" height="108" fill="none" xmlns="http://www.w3.org/2000/svg"><path d="M54 108c29.823 0 54-24.177 54-54S83.823 0 54 0 0 24.177 0 54s24.177 54 54 54z" fill="#00C1FF"/><path d="M32.939 72.72c10.44 0 18.216-7.704 18.216-18.72 0-11.016-7.776-18.72-18.216-18.72-10.44 0-18.216 7.704-18.216 18.72 0 11.016 7.776 18.72 18.216 18.72zm0-6.624c-6.264 0-11.016-4.824-11.016-12.096s4.752-12.096 11.016-12.096S43.955 46.728 43.955 54s-4.752 12.096-11.016 12.096zm48.837-13.752V72h7.2V50.904c0-10.584-5.832-15.624-13.68-15.624-4.752 0-8.712 2.232-10.944 6.408V18h-7.2v54h7.2V52.344c0-7.128 3.312-10.728 8.712-10.728s8.712 3.6 8.712 10.728z" fill="#fff"/></svg>