<svg width="210" height="179" fill="none" xmlns="http://www.w3.org/2000/svg"><path d="M28.212 84.85l133.586 23.555a8.868 8.868 0 008.353-3.065l14.666-17.57a8.534 8.534 0 001.472-8.348l-7.772-21.526a8.882 8.882 0 00-6.802-5.732L38.129 28.609a8.868 8.868 0 00-8.353 3.065L15.284 49.041a8.978 8.978 0 00-1.551 8.797l7.684 21.276a8.865 8.865 0 006.795 5.737z" fill="#D97DFF"/><path d="M49.833 50.397l-3.68-.649-3.246 18.406 3.68.65 1.708-9.682 7.091 11.233 4.675.824-7.548-11.655 10.131-6.868-4.896-.863-9.356 6.777 1.441-8.173zm14.421 31.01l2.11-11.963c1.091 2.204 3.019 3.758 5.485 4.193 5.044.89 9.53-2.38 10.523-8.013.993-5.632-2.104-10.24-7.147-11.13-2.467-.434-4.81.367-6.59 2.065l.487-2.76-3.68-.65-4.87 27.61 3.682.649zm7.75-11.234c-3.202-.565-5.16-3.453-4.504-7.171.655-3.719 3.483-5.763 6.686-5.198 3.202.564 5.16 3.453 4.505 7.17-.656 3.719-3.484 5.763-6.686 5.199zm19.7 8.711l10.861-19.189-3.681-.649-8.02 14.49-2.619-16.366-3.681-.649 3.686 21.716c-1.684 2.664-3.176 3.805-5.495 3.397-.884-.156-1.698-.49-2.358-.834l-.572 3.24c.66.344 1.66.71 2.69.891 4.528.799 6.87-1.939 9.189-6.047zm17.336.932l2.649-15.02 5.963 1.052.597-3.387-15.608-2.752-.597 3.386 5.963 1.052-2.648 15.02 3.681.649zm15.962 3.194c5.337.94 10.008-2.297 11.001-7.93.993-5.632-2.288-10.272-7.626-11.213-5.338-.941-10.008 2.297-11.001 7.93-.993 5.631 2.288 10.271 7.626 11.213zm.597-3.387c-3.203-.565-5.198-3.46-4.542-7.178.656-3.718 3.52-5.756 6.723-5.191 3.203.564 5.197 3.46 4.542 7.177-.656 3.719-3.52 5.757-6.723 5.192zm27.576-20.493c-.364 2.061-1.654 2.707-3.127 2.447-1.362-.24-2.427-1.301-2.064-3.362l-2.945-.52c-.61 3.46 1.272 5.918 4.548 6.496 3.313.584 5.923-1.082 6.533-4.542l-2.945-.52zm.911 28.628l3.245-18.406-4.675-.824-11.02 13.201 2.59-14.688-3.534-.623-3.245 18.406 4.675.825 11.02-13.202-2.59 14.688 3.534.623z" fill="#fff"/><path d="M169.514 83.668a31.575 31.575 0 00-8.104 1.73c-6.272 2.234-13.168 1.924-19.251-.79a40.582 40.582 0 00-22.599-3.08 40.615 40.615 0 00-20.717 9.533c-5.033 4.372-11.531 6.68-18.183 6.373a31.842 31.842 0 00-8.256.71c-15.194 3.335-25.782 17.572-24.622 33.118 1.381 18.527 18.099 31.666 36.088 28.983a31.445 31.445 0 005.956-1.488c6.266-2.234 13.15-1.909 19.226.8a40.58 40.58 0 0022.598 3.074 40.607 40.607 0 0020.717-9.534c5.02-4.37 11.51-6.69 18.156-6.375a31.417 31.417 0 006.131-.315c17.996-2.683 30.145-20.128 26.06-38.252-3.413-15.21-17.694-25.738-33.2-24.487z" fill="#E8BEFC"/><mask id="mask0" maskUnits="userSpaceOnUse" x="8" y="25" width="184" height="87"><path d="M28.212 84.85l133.586 23.555a8.868 8.868 0 008.353-3.065l14.666-17.57a8.534 8.534 0 001.472-8.348l-7.772-21.526a8.882 8.882 0 00-6.802-5.732L38.129 28.609a8.868 8.868 0 00-8.353 3.065L15.284 49.041a8.978 8.978 0 00-1.551 8.797l7.684 21.276a8.865 8.865 0 006.795 5.737z" fill="#AD61FF"/></mask><g mask="url(#mask0)"><path d="M169.514 83.668a31.575 31.575 0 00-8.104 1.73c-6.272 2.234-13.168 1.924-19.251-.79a40.582 40.582 0 00-22.599-3.08 40.615 40.615 0 00-20.717 9.533c-5.033 4.372-11.531 6.68-18.183 6.373a31.842 31.842 0 00-8.256.71c-15.194 3.335-25.782 17.572-24.622 33.118 1.381 18.527 18.099 31.666 36.088 28.983a31.445 31.445 0 005.956-1.488c6.266-2.234 13.15-1.909 19.226.8a40.58 40.58 0 0022.598 3.074 40.607 40.607 0 0020.717-9.534c5.02-4.37 11.51-6.69 18.156-6.375a31.417 31.417 0 006.131-.315c17.996-2.683 30.145-20.128 26.06-38.252-3.413-15.21-17.694-25.738-33.2-24.487z" fill="#E6A8FF"/></g><path d="M80.153 126.887l3.883-.579c-1.144-4.6-5.457-7.162-10.385-6.427-5.339.796-8.7 5.381-7.848 11.093.852 5.712 5.405 9.116 10.743 8.32 5.078-.757 8.507-4.627 8.071-9.6l-3.882.579c.088 3.155-1.976 5.18-4.701 5.586-3.173.474-5.936-1.671-6.498-5.442-.562-3.771 1.454-6.628 4.627-7.101 2.688-.401 5.194.79 5.99 3.571zm12.233 9.663l-2.271-15.232 8.437-1.258 2.272 15.232 3.733-.557-2.784-18.667-15.904 2.372 2.784 18.667 3.733-.557zm33.328-4.97l-2.784-18.667-4.741.707-6.328 16.171-2.221-14.896-3.584.535 2.784 18.666 4.741-.707 6.328-16.171 2.221 14.896 3.584-.534zm5.173-19.854l-3.733.557 2.783 18.667 3.734-.557-1.465-9.819 10.387 8.488 4.742-.707-10.96-8.746 7.504-9.82-4.966.74-6.79 9.485-1.236-8.288zm32.941 5.926a13.777 13.777 0 00-.115-1.28c-.851-5.712-5.33-9.128-10.631-8.337-5.302.79-8.588 5.364-7.737 11.076.852 5.712 5.331 9.127 10.632 8.337 4.293-.64 7.224-3.253 7.808-7.271l-4.032.602c-.496 1.791-1.839 3.022-4.117 3.361-3.136.468-5.51-1.124-6.443-4.305l14.635-2.183zm-10.256-6.332c2.986-.446 5.318 1.115 6.234 4.184l-10.976 1.637c-.02-3.203 1.718-5.37 4.742-5.821zm19.53 22.733l-1.809-12.133c1.751 1.761 4.094 2.633 6.596 2.26 5.114-.763 8.364-5.331 7.512-11.043-.852-5.712-5.293-9.133-10.408-8.37-2.501.373-4.488 1.89-5.649 4.086l-.417-2.8-3.734.557 4.176 28 3.733-.557zm3.827-13.241c-3.248.484-6.048-1.655-6.611-5.426-.562-3.77 1.492-6.633 4.74-7.118 3.248-.484 6.047 1.655 6.61 5.426.562 3.77-1.491 6.634-4.739 7.118z" fill="#fff"/></svg>