<svg width="103" height="92" fill="none" xmlns="http://www.w3.org/2000/svg"><g clip-path="url(#clip0)"><path d="M33.409 91.702h36.337c5.12 0 9.849-2.737 12.41-7.174l18.376-31.866a13.603 13.603 0 000-13.608L82.155 7.204A14.328 14.328 0 0069.746.028H33.409a14.33 14.33 0 00-12.41 7.174L2.834 38.7a14.348 14.348 0 000 14.34L21 84.536a14.33 14.33 0 0012.41 7.167z" fill="#E6A8FF"/><path d="M39.37 51.11v4.978h13.633v7.466h5.41v-7.466h5.194v-4.977h-5.193V22.978h-8.17L39.37 51.11zm4.49 0l9.143-23.912V51.11H43.86z" fill="#fff"/></g><defs><clipPath id="clip0"><path fill="#fff" transform="translate(.914 .029)" d="M0 0h101.442v91.673H0z"/></clipPath></defs></svg>