<svg width="127" height="127" fill="none" xmlns="http://www.w3.org/2000/svg"><g clip-path="url(#clip0)"><path d="M119.885 56.068A109.711 109.711 0 0172.614 8.055C68.19-.758 60.625-.817 56.064 7.926A109.671 109.671 0 018.053 55.197c-8.813 4.424-8.872 11.99-.129 16.55a109.712 109.712 0 0147.271 48.012c4.424 8.813 11.99 8.872 16.55.129a109.713 109.713 0 0148.012-47.27c8.813-4.424 8.872-11.99.129-16.55z" fill="#C2F5FF"/><path d="M74.752 51.976c.059-7.573-4.63-11.506-10.447-11.551-5.927-.046-10.676 3.758-10.736 11.44l-.028 3.623 5.488.043.025-3.183c.04-5.159 2.139-6.899 5.212-6.875 2.908.023 5.034 1.906 4.998 6.46-.078 10.043-16.136 14.308-16.237 27.369l-.022 2.743 22.06.172.04-5.049-16.134-.125c1.497-8.934 15.693-13.708 15.781-25.067z" fill="#091E2A"/></g><defs><clipPath id="clip0"><path fill="#fff" transform="rotate(.446 -117.297 243.722)" d="M0 0h125v125H0z"/></clipPath></defs></svg>