<svg width="94" height="105" fill="none" xmlns="http://www.w3.org/2000/svg"><g clip-path="url(#clip0)"><path d="M19.68 101.87C8.661 108.347.693 103.06.633 93.551L.375 53.078.117 12.605c-.06-9.494 7.84-14.89 18.94-8.546 17.279 9.87 69.107 39.504 69.107 39.504 6.895 3.94 6.958 13.898.114 17.926-.007 0-51.454 30.284-68.598 40.381z" fill="#C2F5FF"/><path d="M32.315 54.75c3.643-.024 5.957 1.73 5.985 6.175l.008 1.179c.028 4.339-2.264 6.228-5.907 6.252-3.642.023-6.065-1.89-6.093-6.283l-.012-1.875-5.356.034.015 2.357c.044 7.018 5.157 10.735 11.478 10.695 6.267-.04 11.279-3.822 11.235-10.732l-.015-2.357c-.028-4.339-2.35-7.27-5.841-8.695 2.83-1.464 4.688-4.154 4.663-7.958l-.012-1.928c-.04-6.267-4.668-9.613-10.293-9.577-5.731.037-10.317 3.387-10.277 9.6l.012 1.93 5.357-.035-.01-1.446c-.022-3.59 2.057-5.102 4.95-5.12 2.892-.02 4.884 1.468 4.907 5.164l.01 1.607c.026 3.964-1.838 5.637-4.838 5.656l-3 .019.034 5.357 3-.02z" fill="#271907"/></g><defs><clipPath id="clip0"><path fill="#fff" transform="rotate(-.365 216.248 -6.52)" d="M0 0h93v103.416H0z"/></clipPath></defs></svg>