<svg width="376" height="122" fill="none" xmlns="http://www.w3.org/2000/svg"><g clip-path="url(#clip0)"><path d="M1.206 16.722a131.715 131.715 0 010 88.565c-3.94 11.026 2.08 18.34 13.617 16.408a1050.15 1050.15 0 01346.354 0c11.526 1.932 17.557-5.392 13.617-16.408a131.725 131.725 0 010-88.565c3.94-11.027-2.081-18.34-13.617-16.408a1050.166 1050.166 0 01-346.354 0C3.297-1.62-2.734 5.695 1.206 16.722z" fill="#FF6D00"/><path d="M52.009 79.72c10.44 0 18.216-7.704 18.216-18.72 0-11.016-7.776-18.72-18.216-18.72-10.44 0-18.216 7.704-18.216 18.72 0 11.016 7.776 18.72 18.216 18.72zm0-6.624c-6.264 0-11.016-4.824-11.016-12.096s4.752-12.096 11.016-12.096S63.025 53.728 63.025 61s-4.752 12.096-11.016 12.096zm41.984-30.24c-6.192 0-10.584 2.736-12.744 6.696v-1.368c0-9.288 2.448-12.24 10.224-13.32l7.848-1.152c7.704-1.008 10.368-2.736 10.512-8.712h-7.2c-.072 1.008-.576 1.944-3.096 2.304l-8.712 1.224c-11.088 1.656-16.416 6.048-16.416 20.16v12.744c0 10.728 7.92 18.288 18.216 18.288 10.368 0 18.216-7.56 18.216-18.432s-7.776-18.432-16.848-18.432zm-1.368 30.24c-6.408 0-11.016-4.752-11.016-11.808 0-6.984 4.608-11.808 11.016-11.808 6.48 0 11.016 4.968 11.016 11.808 0 6.912-4.536 11.808-11.016 11.808zm40.335 9.936L147.144 43h-7.2l-10.368 30.168L119.136 43h-7.2l14.256 39.96c-2.304 5.616-4.752 8.28-9.288 8.28-1.728 0-3.384-.36-4.752-.792v6.336c1.368.432 3.384.792 5.4.792 8.856 0 12.384-5.976 15.408-14.544zm39.398-23.904c-1.368.36-3.528.864-7.056.864-5.904 0-9.144-2.376-9.144-8.856V43h-7.2v8.208c0 10.872 5.184 15.408 15.768 15.408 2.52 0 5.616-.36 7.632-1.008V79h7.2V43h-7.2v16.128zm48.395 4.32c.072-.792.144-1.584.144-2.448 0-11.016-7.488-18.72-17.712-18.72S185.473 49.984 185.473 61c0 11.016 7.488 18.72 17.712 18.72 8.28 0 14.544-4.104 16.776-11.52h-7.776c-1.44 3.24-4.32 5.184-8.712 5.184-6.048 0-10.08-3.672-10.944-9.936h28.224zm-17.568-14.832c5.76 0 9.72 3.6 10.584 9.648h-21.168c.864-6.048 4.752-9.648 10.584-9.648zM234.118 79V64.096h17.28V79h7.2V43h-7.2v14.544h-17.28V43h-7.2v36h7.2zm65.672 0V43h-9.144l-16.488 28.728V43h-6.912v36h9.144l16.488-28.728V79h6.912zm41.244-15.552c.072-.792.144-1.584.144-2.448 0-11.016-7.488-18.72-17.712-18.72S305.754 49.984 305.754 61c0 11.016 7.488 18.72 17.712 18.72 8.28 0 14.544-4.104 16.776-11.52h-7.776c-1.44 3.24-4.32 5.184-8.712 5.184-6.048 0-10.08-3.672-10.944-9.936h28.224zm-17.568-14.832c5.76 0 9.72 3.6 10.584 9.648h-21.168c.864-6.048 4.752-9.648 10.584-9.648z" fill="#fff"/></g><defs><clipPath id="clip0"><path fill="#fff" d="M0 0h376v122H0z"/></clipPath></defs></svg>