<svg width="377" height="132" fill="none" xmlns="http://www.w3.org/2000/svg"><g clip-path="url(#clip0)"><path d="M370.353 57.458c-20.632-11.06-37.441-28.754-47.972-50.505C320.149 2.344 317.155.03 314.152 0h-.07c-.711 0-1.472.06-2.283.19a738.818 738.818 0 01-246.608 0c-.8-.14-1.581-.2-2.292-.19-3.013 0-6.027 2.314-8.28 6.953C44.09 28.704 27.28 46.407 6.649 57.458c-8.86 4.749-8.86 12.333 0 17.082 20.632 11.06 37.44 28.754 47.972 50.505 2.242 4.639 5.266 6.953 8.279 6.953.72.01 1.492-.06 2.292-.19a739.343 739.343 0 01246.608 0c.811.13 1.572.2 2.283.19h.07c2.993-.02 5.987-2.334 8.229-6.953 10.541-21.751 27.35-39.454 47.972-50.505 8.86-4.749 8.86-12.333 0-17.082z" fill="#FF64B0"/><path d="M76.87 88.032L91.054 48h-7.2L73.486 78.168 63.046 48h-7.2l14.256 39.96c-2.304 5.616-4.752 8.28-9.288 8.28-1.728 0-3.384-.36-4.752-.792v6.336c1.368.432 3.384.792 5.4.792 8.856 0 12.384-5.976 15.408-14.544zm27.081-25.056v5.4h5.688c4.104 0 6.624 1.872 6.624 5.256 0 3.096-2.232 5.4-7.848 5.4-5.904 0-8.856-2.88-8.856-7.776h-7.2c0 8.568 5.904 13.464 15.984 13.464 9.864 0 15.12-4.104 15.12-10.872 0-4.032-2.16-6.768-6.192-8.136 3.528-1.512 5.328-4.608 5.328-8.136 0-5.616-4.68-10.296-14.256-10.296-10.152 0-15.408 5.904-15.408 12.96h7.2c0-4.608 2.952-7.2 8.208-7.2 4.968 0 7.344 2.088 7.344 5.112 0 3.168-2.088 4.824-6.048 4.824h-5.688zM136.856 84V69.096h17.28V84h7.2V48h-7.2v14.544h-17.28V48h-7.2v36h7.2zm43.496.72c5.184 0 9.792-2.016 12.168-6.768V84h7.056V58.8c0-8.352-7.2-11.52-14.976-11.52-7.92 0-15.408 3.528-15.408 12.816h7.488c0-4.68 3.24-7.056 7.92-7.056 4.392 0 7.776 1.944 7.776 5.472 0 8.208-24.264.432-24.264 15.984 0 7.128 5.832 10.224 12.24 10.224zm-4.896-10.656c0-6.048 10.944-4.536 17.064-7.488v2.592c0 6.264-5.184 9.504-10.728 9.504-3.672 0-6.336-1.512-6.336-4.608zM207.57 84h18.432c7.488 0 12.096-3.456 12.096-10.368 0-4.536-2.52-7.416-6.48-8.712 3.096-1.296 4.968-3.744 4.968-7.56 0-6.264-4.536-9.36-11.16-9.36H207.57v36zm15.768-30.528c4.464 0 6.336 1.44 6.336 4.68 0 3.024-1.872 4.68-6.336 4.68h-8.856v-9.36h8.856zm1.44 14.832c4.032 0 6.12 1.8 6.12 5.112 0 3.312-2.088 5.112-6.12 5.112h-10.296V68.304h10.296zm30.746 16.416c5.184 0 9.792-2.016 12.168-6.768V84h7.056V58.8c0-8.352-7.2-11.52-14.976-11.52-7.92 0-15.408 3.528-15.408 12.816h7.488c0-4.68 3.24-7.056 7.92-7.056 4.392 0 7.776 1.944 7.776 5.472 0 8.208-24.264.432-24.264 15.984 0 7.128 5.832 10.224 12.24 10.224zm-4.896-10.656c0-6.048 10.944-4.536 17.064-7.488v2.592c0 6.264-5.184 9.504-10.728 9.504-3.672 0-6.336-1.512-6.336-4.608zM303.982 30c0 4.032-2.232 5.688-5.112 5.688-2.664 0-5.04-1.656-5.04-5.688h-5.76c0 6.768 4.392 10.8 10.8 10.8 6.48 0 10.872-4.032 10.872-10.8h-5.76zm11.304 54V48h-9.144l-16.488 28.728V48h-6.912v36h9.144l16.488-28.728V84h6.912z" fill="#fff"/></g><defs><clipPath id="clip0"><path fill="#fff" d="M0 0h377v132H0z"/></clipPath></defs></svg>