<svg width="440" height="110" fill="none" xmlns="http://www.w3.org/2000/svg"><path d="M434 44.528s-46.908-27.283-69.617-40.486A29.774 29.774 0 00349.405 0H13.677C6.117 0 0 6.158 0 13.768v82.464C0 103.832 6.118 110 13.677 110h335.578a29.763 29.763 0 0014.958-4.032C386.952 92.765 434 65.472 434 65.472c8-4.667 8-16.287 0-20.944z" fill="#40E687"/><path d="M44.483 78.032L58.667 38h-7.2L41.1 68.168 30.66 38h-7.2l14.256 39.96c-2.304 5.616-4.752 8.28-9.288 8.28-1.728 0-3.384-.36-4.752-.792v6.336c1.368.432 3.384.792 5.4.792 8.856 0 12.384-5.976 15.408-14.544zm43.503-25.704h7.488c-.864-9-8.28-15.048-17.784-15.048-10.296 0-17.928 7.704-17.928 18.72 0 11.016 7.632 18.72 17.928 18.72 9.792 0 17.352-6.336 17.928-15.84H88.13c-.72 5.976-5.184 9.216-10.44 9.216-6.12 0-10.728-4.824-10.728-12.096S71.57 43.904 77.69 43.904c5.184 0 9.576 2.952 10.296 8.424zM108.829 38h-7.2v36h7.2V55.064L126.037 74h9.144l-18.216-19.584L133.885 38h-9.576l-15.48 15.984V38zm43.899 36.72c10.44 0 18.216-7.704 18.216-18.72 0-11.016-7.776-18.72-18.216-18.72-10.44 0-18.216 7.704-18.216 18.72 0 11.016 7.776 18.72 18.216 18.72zm0-6.624c-6.264 0-11.016-4.824-11.016-12.096s4.752-12.096 11.016-12.096S163.744 48.728 163.744 56s-4.752 12.096-11.016 12.096zM184.141 92V68.6c2.808 3.816 6.984 6.12 11.808 6.12 9.864 0 17.28-7.704 17.28-18.72 0-11.016-7.416-18.72-17.28-18.72-4.824 0-9 2.304-11.808 6.12V38h-7.2v54h7.2zm10.944-23.904c-6.264 0-10.944-4.824-10.944-12.096s4.68-12.096 10.944-12.096c6.264 0 10.944 4.824 10.944 12.096s-4.68 12.096-10.944 12.096zm56.769-9.648c.072-.792.144-1.584.144-2.448 0-11.016-7.488-18.72-17.712-18.72S216.574 44.984 216.574 56c0 11.016 7.488 18.72 17.712 18.72 8.28 0 14.544-4.104 16.776-11.52h-7.776c-1.44 3.24-4.32 5.184-8.712 5.184-6.048 0-10.08-3.672-10.944-9.936h28.224zm-17.568-14.832c5.76 0 9.72 3.6 10.584 9.648h-21.168c.864-6.048 4.752-9.648 10.584-9.648zM265.219 74V59.096h17.28V74h7.2V38h-7.2v14.544h-17.28V38h-7.2v36h7.2zm65.673 0V38h-9.144L305.26 66.728V38h-6.912v36h9.144l16.488-28.728V74h6.912zm41.243-15.552c.072-.792.144-1.584.144-2.448 0-11.016-7.488-18.72-17.712-18.72S336.855 44.984 336.855 56c0 11.016 7.488 18.72 17.712 18.72 8.28 0 14.544-4.104 16.776-11.52h-7.776c-1.44 3.24-4.32 5.184-8.712 5.184-6.048 0-10.08-3.672-10.944-9.936h28.224zm-17.568-14.832c5.76 0 9.72 3.6 10.584 9.648h-21.168c.864-6.048 4.752-9.648 10.584-9.648z" fill="#fff"/></svg>