<svg width="241" height="126" fill="none" xmlns="http://www.w3.org/2000/svg"><path d="M195.934 14.576a48.55 48.55 0 00-12.709.792c-10.039 1.975-20.448-.06-29.078-5.564A62.356 62.356 0 00120.5 0a62.408 62.408 0 00-33.647 9.794c-8.64 5.504-19.038 7.539-29.077 5.564a48.925 48.925 0 00-12.71-.792C21.218 16.19 1.9 35.427.14 59.316c-2.1 28.47 20.329 52.228 48.276 52.228 3.21 0 6.35-.31 9.39-.912 10.029-1.975 20.418.08 29.037 5.574 9.73 6.205 21.268 9.794 33.647 9.794a62.41 62.41 0 0033.647-9.794c8.62-5.504 19.009-7.559 29.038-5.574 3.04.602 6.18.912 9.389.912 27.958 0 50.376-23.758 48.276-52.228-1.74-23.889-21.058-43.126-44.906-44.74z" fill="#BCEC30"/><path d="M52.765 84.032L66.949 44h-7.2L49.38 74.168 38.94 44h-7.2l14.256 39.96c-2.304 5.616-4.752 8.28-9.288 8.28-1.728 0-3.384-.36-4.752-.792v6.336c1.368.432 3.384.792 5.4.792 8.856 0 12.384-5.976 15.408-14.544zm39.398-23.904c-1.368.36-3.528.864-7.056.864-5.904 0-9.144-2.376-9.144-8.856V44h-7.2v8.208c0 10.872 5.184 15.408 15.768 15.408 2.52 0 5.616-.36 7.632-1.008V80h7.2V44h-7.2v16.128zM140.485 80V44h-9.144l-16.488 28.728V44h-6.912v36h9.144l16.488-28.728V80h6.912zm34.188-21.672h7.488c-.864-9-8.28-15.048-17.784-15.048-10.296 0-17.928 7.704-17.928 18.72 0 11.016 7.632 18.72 17.928 18.72 9.792 0 17.352-6.336 17.928-15.84h-7.488c-.72 5.976-5.184 9.216-10.44 9.216-6.12 0-10.728-4.824-10.728-12.096s4.608-12.096 10.728-12.096c5.184 0 9.576 2.952 10.296 8.424zm42.659 9.576c0-7.128-5.112-12.024-13.824-12.024h-7.992V44h-7.2v36h15.264c9 0 13.752-4.968 13.752-12.096zm-14.4-5.976c4.896 0 7.2 1.944 7.2 5.904 0 3.888-2.304 6.12-7.2 6.12h-7.416V61.928h7.416z" fill="#fff"/></svg>