<svg width="339" height="110" fill="none" xmlns="http://www.w3.org/2000/svg"><g clip-path="url(#clip0)"><path d="M38.792 110h261.275a17.082 17.082 0 0014.819-8.608l21.942-38.232a16.431 16.431 0 000-16.33L314.886 8.598C311.82 3.276 306.179 0 300.067 0H38.793a17.082 17.082 0 00-14.82 8.608L2.293 46.397a17.292 17.292 0 000 17.206l21.692 37.789A17.075 17.075 0 0038.792 110z" fill="#AD61FF"/><path d="M46.551 73V43.624h16.272V73h7.2V37H39.351v36h7.2zm64.831-15.552c.071-.792.144-1.584.144-2.448 0-11.016-7.488-18.72-17.712-18.72S76.102 43.984 76.102 55c0 11.016 7.487 18.72 17.712 18.72 8.28 0 14.544-4.104 16.776-11.52h-7.776c-1.44 3.24-4.32 5.184-8.712 5.184-6.049 0-10.08-3.672-10.945-9.936h28.225zM93.813 42.616c5.76 0 9.721 3.6 10.585 9.648H83.23c.864-6.048 4.751-9.648 10.584-9.648zm45.119 10.512c-1.368.36-3.528.864-7.056.864-5.904 0-9.144-2.376-9.144-8.856V37h-7.2v8.208c0 10.872 5.184 15.408 15.768 15.408 2.52 0 5.616-.36 7.632-1.008V73h7.2V37h-7.2v16.128zm48.395 4.32c.072-.792.144-1.584.144-2.448 0-11.016-7.488-18.72-17.712-18.72S152.047 43.984 152.047 55c0 11.016 7.488 18.72 17.712 18.72 8.28 0 14.544-4.104 16.776-11.52h-7.776c-1.44 3.24-4.32 5.184-8.712 5.184-6.048 0-10.08-3.672-10.944-9.936h28.224zm-17.568-14.832c5.76 0 9.72 3.6 10.584 9.648h-21.168c.864-6.048 4.752-9.648 10.584-9.648zM200.692 73V58.096h17.28V73h7.2V37h-7.2v14.544h-17.28V37h-7.2v36h7.2zm62.144-12.096c0-7.128-5.112-12.024-13.824-12.024h-7.992V37h-7.2v36h15.264c9 0 13.752-4.968 13.752-12.096zm-14.4-5.976c4.896 0 7.2 1.944 7.2 5.904 0 3.888-2.304 6.12-7.2 6.12h-7.416V54.928h7.416zm52.703 2.52c.072-.792.144-1.584.144-2.448 0-11.016-7.488-18.72-17.712-18.72S265.859 43.984 265.859 55c0 11.016 7.488 18.72 17.712 18.72 8.28 0 14.544-4.104 16.776-11.52h-7.776c-1.44 3.24-4.32 5.184-8.712 5.184-6.048 0-10.08-3.672-10.944-9.936h28.224zm-17.568-14.832c5.76 0 9.72 3.6 10.584 9.648h-21.168c.864-6.048 4.752-9.648 10.584-9.648z" fill="#fff"/></g><defs><clipPath id="clip0"><path fill="#fff" d="M0 0h339v110H0z"/></clipPath></defs></svg>