<svg width="378" height="109" fill="none" xmlns="http://www.w3.org/2000/svg"><path d="M323.795 109H54.205C24.273 109 0 84.709 0 54.755v-.51C0 24.291 24.273 0 54.205 0h269.59C353.727 0 378 24.291 378 54.245v.51C378 84.709 353.727 109 323.795 109z" fill="#00C1FF"/><path d="M40.464 67.376V83.72h6.624V74h26.424v9.72h6.624V67.376h-5.04V38h-27.72c-.144 21.096-1.584 25.992-3.384 29.376h-3.528zm12.672-8.568c.432-3.24.72-7.704.792-14.184h13.968v22.752H51.264c.72-1.8 1.296-4.392 1.872-8.568zm47.803 15.912c10.44 0 18.216-7.704 18.216-18.72 0-11.016-7.776-18.72-18.216-18.72-10.44 0-18.216 7.704-18.216 18.72 0 11.016 7.776 18.72 18.216 18.72zm0-6.624c-6.264 0-11.016-4.824-11.016-12.096s4.752-12.096 11.016-12.096S111.955 48.728 111.955 56s-4.752 12.096-11.016 12.096zm49.773-15.768h7.488c-.864-9-8.28-15.048-17.784-15.048-10.296 0-17.928 7.704-17.928 18.72 0 11.016 7.632 18.72 17.928 18.72 9.792 0 17.352-6.336 17.928-15.84h-7.488c-.72 5.976-5.184 9.216-10.44 9.216-6.12 0-10.728-4.824-10.728-12.096s4.608-12.096 10.728-12.096c5.184 0 9.576 2.952 10.296 8.424zM177.851 74V44.624h11.664V38h-30.528v6.624h11.664V74h7.2zm48.83 0V38h-9.144l-16.488 28.728V38h-6.912v36h9.144l16.488-28.728V74h6.912zm15.827 0V44.624h16.488V38h-23.688v36h7.2zm31.262.72c5.184 0 9.792-2.016 12.168-6.768V74h7.056V48.8c0-8.352-7.2-11.52-14.976-11.52-7.92 0-15.408 3.528-15.408 12.816h7.488c0-4.68 3.24-7.056 7.92-7.056 4.392 0 7.776 1.944 7.776 5.472 0 8.208-24.264.432-24.264 15.984 0 7.128 5.832 10.224 12.24 10.224zm-4.896-10.656c0-6.048 10.944-4.536 17.064-7.488v2.592c0 6.264-5.184 9.504-10.728 9.504-3.672 0-6.336-1.512-6.336-4.608zM322.228 20c0 4.032-2.232 5.688-5.112 5.688-2.664 0-5.04-1.656-5.04-5.688h-5.76c0 6.768 4.392 10.8 10.8 10.8 6.48 0 10.872-4.032 10.872-10.8h-5.76zm11.304 54V38h-9.144L307.9 66.728V38h-6.912v36h9.144l16.488-28.728V74h6.912z" fill="#fff"/></svg>