<svg width="370" height="232" fill="none" xmlns="http://www.w3.org/2000/svg"><g id="Forms / Bang" clip-path="url(#clip0)"><path id="Vector" d="M360.461 108.469l-67.653-22.017 23.263-41.497c5.144-9.185 1.079-14.352-9.049-11.494l-88.001 24.846-26.979-52.64c-3.875-7.556-10.208-7.556-14.084 0l-26.979 52.65-88-24.846c-10.129-2.858-14.194 2.309-9.05 11.494l23.273 41.487L9.54 108.469c-12.725 4.138-12.725 10.914 0 15.062l67.653 22.017-23.263 41.497c-5.144 9.185-1.079 14.352 9.05 11.494l88-24.846 26.979 52.65c3.876 7.556 10.209 7.556 14.084 0l26.979-52.65 88.001 24.846c10.128 2.858 14.193-2.309 9.049-11.494l-23.263-41.497 67.653-22.017c12.725-4.138 12.725-10.914 0-15.062z" fill="#40E687"/><path id="BOOM" d="M96.909 145h17.775c9.717 0 16.353-5.846 16.353-16.59v-1.58c0-7.11-3.634-11.692-9.164-13.825 4.661-2.054 7.584-5.846 7.584-11.929v-.79c0-9.48-6.636-14.536-16.353-14.536H96.909V145zm15.405-51.982c5.925 0 9.243 2.37 9.243 7.9v.79c0 6.162-3.476 8.611-9.085 8.611h-7.663V93.018h7.505zm1.58 24.49c5.767 0 9.243 2.607 9.243 9.401v.79c0 7.031-3.318 10.033-9.243 10.033h-9.085v-20.224h9.085zm41.119 28.282c10.902 0 17.459-6.636 17.459-20.224v-20.382c0-13.509-6.557-20.224-17.459-20.224s-17.459 6.715-17.459 20.224v20.382c0 13.588 6.557 20.224 17.459 20.224zm0-7.268c-6.004 0-9.559-3.397-9.559-12.956v-20.382c0-9.48 3.634-12.956 9.559-12.956 6.004 0 9.559 3.476 9.559 12.956v20.382c0 9.559-3.634 12.956-9.559 12.956zm43.054 7.268c10.902 0 17.459-6.636 17.459-20.224v-20.382c0-13.509-6.557-20.224-17.459-20.224s-17.459 6.715-17.459 20.224v20.382c0 13.588 6.557 20.224 17.459 20.224zm0-7.268c-6.004 0-9.559-3.397-9.559-12.956v-20.382c0-9.48 3.634-12.956 9.559-12.956 6.004 0 9.559 3.476 9.559 12.956v20.382c0 9.559-3.634 12.956-9.559 12.956zM253.209 145l12.008-53.325V145h7.9V85.75h-13.746l-10.586 48.822-10.823-48.822h-13.509V145h7.268V91.438L243.65 145h9.559z" fill="#fff"/></g><defs><clipPath id="clip0"><path fill="#fff" d="M0 0h370v232H0z"/></clipPath></defs></svg>