<svg width="267" height="151" fill="none" xmlns="http://www.w3.org/2000/svg"><g id="Forms / Bubble"><path id="Vector" d="M207.498 0H59.512C26.648 0 0 26.573 0 59.344v.549c0 32.771 26.648 59.344 59.512 59.344h2.713v22.34c0 9.283 6.007 12.208 13.344 6.498l37.029-28.828h94.89c32.864 0 59.512-26.573 59.512-59.344v-.55C267.01 26.574 240.372 0 207.498 0z" fill="#D97DFF"/><path id="sorry" d="M79.372 68.861c0-16.116-24.095-9.085-24.095-17.854 0-3.16 2.844-4.977 7.11-4.977 4.582 0 7.979 2.765 7.979 6.557h8.216c0-7.268-6.952-12.877-16.195-12.877-8.532 0-15.09 4.424-15.09 11.613 0 15.879 23.938 8.295 23.938 17.854 0 3.555-2.844 5.372-7.663 5.372-5.056 0-8.848-2.449-8.848-7.268h-8.216c0 8.611 7.347 13.509 17.064 13.509 9.164 0 15.8-4.503 15.8-11.929zM103.75 80.79c11.455 0 19.987-8.453 19.987-20.54s-8.532-20.54-19.987-20.54c-11.455 0-19.987 8.453-19.987 20.54s8.532 20.54 19.987 20.54zm0-7.268c-6.873 0-12.087-5.293-12.087-13.272s5.214-13.272 12.087-13.272c6.873 0 12.087 5.293 12.087 13.272s-5.214 13.272-12.087 13.272zM138.413 40.5h-7.9V80h7.9V60.171c0-8.137 4.424-12.245 12.008-12.245 1.58 0 3.002.237 4.187.632v-8.611c-.632-.158-1.58-.237-2.528-.237-6.004 0-10.823 2.765-13.667 7.9V40.5zm29.862 0h-7.9V80h7.9V60.171c0-8.137 4.424-12.245 12.008-12.245 1.58 0 3.002.237 4.187.632v-8.611c-.632-.158-1.58-.237-2.528-.237-6.004 0-10.823 2.765-13.667 7.9V40.5zm39.658 43.924L223.496 40.5h-7.9L204.22 73.601 192.765 40.5h-7.9l15.642 43.845c-2.528 6.162-5.214 9.085-10.191 9.085-1.896 0-3.713-.395-5.214-.869v6.952c1.501.474 3.713.869 5.925.869 9.717 0 13.588-6.557 16.906-15.958z" fill="#fff"/></g></svg>