<svg width="220" height="174" fill="none" xmlns="http://www.w3.org/2000/svg"><g id="Forms / Cat" clip-path="url(#clip0)"><path id="Vector" d="M208.203 65.183l4.012-54.02c.888-11.912-5.3-14.738-13.734-6.3l-33.366 33.38c-17.936-5.362-37.708-7.2-55.125-7.2s-37.189 1.848-55.125 7.2L21.51 4.863C13.075-3.585 6.897-.75 7.775 11.163l4.012 54.02C4.422 74.878 0 87.12 0 102.517 0 160.81 63.429 174 110 174c46.561 0 110-13.19 110-71.483-.01-15.397-4.432-27.639-11.797-37.334z" fill="#FF9E00"/><path id="Kitty" d="M46.894 69.75h-7.9V129h7.9V99.849L64.354 129h9.48L55.11 98.111 72.885 69.75h-8.69l-17.3 28.835V69.75zM81.91 80.889c3.081 0 5.214-2.291 5.214-5.293 0-3.002-2.133-5.214-5.214-5.214-3.002 0-5.214 2.212-5.214 5.214 0 3.002 2.212 5.293 5.214 5.293zM85.86 129V89.5h-7.9V129h7.9zm19.808-13.509V96.452h11.376V89.5h-11.376V77.808h-7.9V89.5H91.29v6.952h6.478v19.513c0 10.744 5.53 13.825 13.114 13.825 2.291 0 4.74-.474 6.162-.948v-7.031c-1.343.474-2.923.711-4.661.711-4.582 0-6.715-2.133-6.715-7.031zm28.782 0V96.452h11.376V89.5H134.45V77.808h-7.9V89.5h-6.478v6.952h6.478v19.513c0 10.744 5.53 13.825 13.114 13.825 2.291 0 4.74-.474 6.162-.948v-7.031c-1.343.474-2.923.711-4.661.711-4.582 0-6.715-2.133-6.715-7.031zm36.366 17.933L186.379 89.5h-7.9l-11.376 33.101L155.648 89.5h-7.9l15.642 43.845c-2.528 6.162-5.214 9.085-10.191 9.085-1.896 0-3.713-.395-5.214-.869v6.952c1.501.474 3.713.869 5.925.869 9.717 0 13.588-6.557 16.906-15.958z" fill="#fff"/></g><defs><clipPath id="clip0"><path fill="#fff" d="M0 0h220v174H0z"/></clipPath></defs></svg>