<svg width="284" height="148" fill="none" xmlns="http://www.w3.org/2000/svg"><g id="Forms / Cloud"><path id="Vector" d="M225.287 24.078c-11.224 0-21.718 3.152-30.635 8.608C185.066 13.326 165.096 0 142 0S98.934 13.326 89.348 32.696c-8.917-5.456-19.411-8.608-30.635-8.608C26.291 24.078 0 46.191 0 74.928 0 134.515 81.889 148 142 148c60.111 0 142-13.475 142-73.072 0-28.737-26.281-50.85-58.713-50.85z" fill="#00C1FF"/><path id="cloud" d="M77.36 79.221h8.217c-.948-9.875-9.085-16.511-19.513-16.511-11.297 0-19.671 8.453-19.671 20.54s8.374 20.54 19.67 20.54c10.745 0 19.04-6.952 19.672-17.38h-8.216c-.79 6.557-5.688 10.112-11.455 10.112-6.715 0-11.771-5.293-11.771-13.272s5.056-13.272 11.77-13.272c5.689 0 10.508 3.239 11.298 9.243zM100.426 103V43.75h-7.9V103h7.9zm26.759.79c11.455 0 19.987-8.453 19.987-20.54s-8.532-20.54-19.987-20.54c-11.455 0-19.987 8.453-19.987 20.54s8.532 20.54 19.987 20.54zm0-7.268c-6.873 0-12.087-5.293-12.087-13.272s5.214-13.272 12.087-13.272c6.873 0 12.087 5.293 12.087 13.272s-5.214 13.272-12.087 13.272zm34.268-11.613V63.5h-7.9v22.989c0 11.771 6.399 17.301 14.852 17.301 5.135 0 9.322-2.449 11.771-7.11V103h7.9V63.5h-7.9v21.409c0 7.9-3.555 11.929-9.322 11.929-5.846 0-9.401-4.029-9.401-11.929zM213.81 62.71c-10.823 0-18.96 8.453-18.96 20.54s8.137 20.54 18.96 20.54c5.293 0 9.875-2.528 12.956-6.715V103h7.9V43.75h-7.9v25.675c-3.081-4.187-7.663-6.715-12.956-6.715zm.948 7.268c6.873 0 12.008 5.293 12.008 13.272s-5.135 13.272-12.008 13.272c-6.873 0-12.008-5.293-12.008-13.272s5.135-13.272 12.008-13.272z" fill="#fff"/></g></svg>