<svg width="296" height="193" fill="none" xmlns="http://www.w3.org/2000/svg"><g id="Forms / Crown"><path id="Vector" d="M296 44.22c0-11.845-9.617-21.45-21.478-21.45-11.862 0-21.479 9.605-21.479 21.45 0 6.133 2.585 11.646 6.712 15.548-17.131 30.294-63.013 18.558-61.45-17.398 9.627-2.121 16.83-10.675 16.83-20.93 0-11.836-9.607-21.44-21.468-21.44s-21.479 9.604-21.479 21.45c0 7.984 4.378 14.937 10.86 18.629-5.47 14.987-16.991 27.953-35.043 27.953-18.032 0-29.543-12.936-35.013-27.893 6.542-3.672 10.96-10.665 10.96-18.689 0-11.846-9.607-21.45-21.468-21.45-11.862 0-21.479 9.604-21.479 21.45 0 10.205 7.143 18.719 16.69 20.89 1.593 35.986-44.33 47.732-61.45 17.418 4.117-3.912 6.702-9.415 6.702-15.537 0-11.846-9.617-21.45-21.479-21.45C9.608 22.77 0 32.375 0 44.22c0 11.845 9.617 21.45 21.479 21.45l13.954 87.58C40.002 182.045 93.257 193 148.015 193c54.758 0 107.983-10.955 112.552-39.749l13.975-87.58C286.393 65.66 296 56.056 296 44.22z" fill="#FF6D00"/><path id="super" d="M82.417 131.861c0-16.116-24.095-9.085-24.095-17.854 0-3.16 2.844-4.977 7.11-4.977 4.582 0 7.979 2.765 7.979 6.557h8.216c0-7.268-6.952-12.877-16.195-12.877-8.532 0-15.09 4.424-15.09 11.613 0 15.879 23.938 8.295 23.938 17.854 0 3.555-2.844 5.372-7.663 5.372-5.056 0-8.848-2.449-8.848-7.268h-8.216c0 8.611 7.347 13.509 17.064 13.509 9.164 0 15.8-4.503 15.8-11.929zm14.82-6.952V103.5h-7.9v22.989c0 11.771 6.398 17.301 14.851 17.301 5.135 0 9.322-2.449 11.771-7.11V143h7.9v-39.5h-7.9v21.409c0 7.9-3.555 11.929-9.322 11.929-5.846 0-9.4-4.029-9.4-11.929zm44.22 37.841v-25.675c3.081 4.187 7.663 6.715 12.956 6.715 10.823 0 18.96-8.453 18.96-20.54s-8.137-20.54-18.96-20.54c-5.293 0-9.875 2.528-12.956 6.715V103.5h-7.9v59.25h7.9zm12.008-26.228c-6.873 0-12.008-5.293-12.008-13.272s5.135-13.272 12.008-13.272c6.873 0 12.008 5.293 12.008 13.272s-5.135 13.272-12.008 13.272zm62.483-10.586c.079-.869.158-1.738.158-2.686 0-12.087-8.216-20.54-19.434-20.54-11.218 0-19.434 8.453-19.434 20.54s8.216 20.54 19.434 20.54c9.085 0 15.958-4.503 18.407-12.64h-8.532c-1.58 3.555-4.74 5.688-9.559 5.688-6.636 0-11.06-4.029-12.008-10.902h30.968zm-19.276-16.274c6.32 0 10.665 3.95 11.613 10.586h-23.226c.948-6.636 5.214-10.586 11.613-10.586zm34.135-6.162h-7.9V143h7.9v-19.829c0-8.137 4.424-12.245 12.008-12.245 1.58 0 3.002.237 4.187.632v-8.611c-.632-.158-1.58-.237-2.528-.237-6.004 0-10.823 2.765-13.667 7.9v-7.11z" fill="#fff"/></g></svg>