<svg width="218" height="170" fill="none" xmlns="http://www.w3.org/2000/svg"><g id="Forms / Love"><path id="Vector" d="M167.472 0c-40.224 0-58.132 29.262-58.132 29.262S90.722 0 50.537 0C21.987 0 0 21.65 0 52.59 0 111.375 88.903 170 109 170c20.107 0 109-58.615 109-117.41C218.01 21.65 196.024 0 167.472 0z" fill="#FF4545"/><path id="love" d="M50.912 100V40.75h-7.9V100h7.9zm26.76.79c11.455 0 19.987-8.453 19.987-20.54s-8.532-20.54-19.987-20.54c-11.455 0-19.987 8.453-19.987 20.54s8.532 20.54 19.987 20.54zm0-7.268c-6.873 0-12.087-5.293-12.087-13.272s5.214-13.272 12.087-13.272c6.873 0 12.087 5.293 12.087 13.272s-5.214 13.272-12.087 13.272zM123.868 100l13.43-39.5h-8.216l-10.744 33.18-10.744-33.18h-8.216l13.43 39.5h11.06zm53.853-17.064c.079-.869.158-1.738.158-2.686 0-12.087-8.216-20.54-19.434-20.54-11.218 0-19.434 8.453-19.434 20.54s8.216 20.54 19.434 20.54c9.085 0 15.958-4.503 18.407-12.64h-8.532c-1.58 3.555-4.74 5.688-9.559 5.688-6.636 0-11.06-4.029-12.008-10.902h30.968zm-19.276-16.274c6.32 0 10.665 3.95 11.613 10.586h-23.226c.948-6.636 5.214-10.586 11.613-10.586z" fill="#fff"/></g></svg>