<svg width="183" height="174" fill="none" xmlns="http://www.w3.org/2000/svg"><g id="Forms / Poop" clip-path="url(#clip0)"><path id="Vector" d="M149.99 82.806c5.873-6.36 8.22-12.052 8.22-21.328 0-13.66-13.864-26.53-33.29-30.734-15.661-3.385-23.622-8.747-16.71-23.265 2.807-5.901-2.977-8.837-9.868-6.9-22.144 6.21-46.195 19.78-46.195 46.5-19.696 2.617-40.75 15.497-40.75 36.017 0 7.708 2.187 12.531 6.541 18.392C8.08 107.529 0 119.352 0 131.304 0 163.895 48.162 174 91.52 174c45.296 0 91.48-15.936 91.48-51.214 0-18.492-13.863-33.23-33.01-39.98z" fill="#FF9ACC"/><path id="No" d="M65.327 68.75H52.134V128h7.268V73.727L74.017 128h13.035V68.75h-7.268v53.641L65.327 68.75zm48.469 60.04c11.455 0 19.987-8.453 19.987-20.54s-8.532-20.54-19.987-20.54c-11.455 0-19.987 8.453-19.987 20.54s8.532 20.54 19.987 20.54zm0-7.268c-6.873 0-12.087-5.293-12.087-13.272s5.214-13.272 12.087-13.272c6.873 0 12.087 5.293 12.087 13.272s-5.214 13.272-12.087 13.272z" fill="#fff"/></g><defs><clipPath id="clip0"><path fill="#fff" d="M0 0h183v174H0z"/></clipPath></defs></svg>